<svg width="305" height="40" viewBox="0 0 305 40" fill="none" xmlns="http://www.w3.org/2000/svg">
<g clip-path="url(#clip0_2343_1565)">
<path d="M53.1948 0.467529H4.98702C2.46229 0.467529 0.415588 2.51423 0.415588 5.03896V34.961C0.415588 37.4858 2.46229 39.5325 4.98702 39.5325H53.1948C55.7195 39.5325 57.7662 37.4858 57.7662 34.961V5.03896C57.7662 2.51423 55.7195 0.467529 53.1948 0.467529Z" fill="white" stroke="#D9D9D9"/>
<path fill-rule="evenodd" clip-rule="evenodd" d="M15.9253 13.921C15.437 14.506 14.6556 14.9674 13.8742 14.9014C13.7765 14.1105 14.1591 13.2701 14.6067 12.751C15.0951 12.1496 15.9497 11.7212 16.6416 11.6882C16.7229 12.5122 16.4055 13.3196 15.9253 13.921ZM16.6333 15.058C15.945 15.0179 15.3169 15.2676 14.8095 15.4692C14.483 15.599 14.2066 15.7088 13.9962 15.7088C13.7602 15.7088 13.4723 15.5931 13.1491 15.4632C12.7255 15.2928 12.2413 15.0981 11.7335 15.1074C10.5696 15.1239 9.48712 15.7913 8.89292 16.8541C7.67205 18.9797 8.5755 22.1271 9.75567 23.8573C10.3336 24.7141 11.0254 25.6534 11.937 25.6205C12.338 25.6052 12.6265 25.4812 12.9251 25.353C13.2689 25.2054 13.6259 25.0519 14.1835 25.0519C14.7217 25.0519 15.0631 25.2013 15.3909 25.3448C15.7025 25.4811 16.0018 25.612 16.4462 25.604C17.3903 25.5875 17.9845 24.7471 18.5623 23.8903C19.1859 22.9706 19.4601 22.0731 19.5016 21.9369L19.5065 21.9211C19.5065 21.9211 19.4978 21.9165 19.4842 21.9103C19.2757 21.8136 17.6823 21.0752 17.6671 19.0951C17.6517 17.4331 18.9309 16.591 19.1323 16.4585C19.1445 16.4504 19.1528 16.445 19.1565 16.4422C18.3426 15.2228 17.0729 15.091 16.6333 15.058ZM23.1692 25.5133V12.6687H27.9307C30.3888 12.6687 32.1061 14.3824 32.1061 16.887C32.1061 19.3918 30.3562 21.1219 27.8656 21.1219H25.1389V25.5133H23.1692ZM25.1388 14.3495H27.4096C29.1188 14.3495 30.0955 15.2722 30.0955 16.8953C30.0955 18.5184 29.1188 19.4494 27.4015 19.4494H25.1388V14.3495ZM38.6094 23.9727C38.0886 24.9778 36.9409 25.6122 35.7038 25.6122C33.8724 25.6122 32.5945 24.5082 32.5945 22.8439C32.5945 21.1961 33.8317 20.2486 36.1189 20.1086L38.5769 19.9602V19.2517C38.5769 18.2053 37.9013 17.6368 36.6968 17.6368C35.7038 17.6368 34.9793 18.1559 34.8329 18.9468H33.0585C33.1154 17.2826 34.6619 16.0714 36.7537 16.0714C39.0082 16.0714 40.4733 17.266 40.4733 19.1199V25.5133H38.6502V23.9727H38.6094ZM36.2326 24.088C35.1827 24.088 34.5153 23.5772 34.5153 22.7945C34.5153 21.9871 35.1583 21.5174 36.3873 21.4432L38.5768 21.3032V22.0282C38.5768 23.2312 37.5675 24.088 36.2326 24.088ZM46.5207 26.0159C45.7312 28.2652 44.8278 29.0067 42.9069 29.0067C42.7604 29.0067 42.272 28.9903 42.158 28.9573V27.4166C42.2801 27.4331 42.5814 27.4495 42.736 27.4495C43.6068 27.4495 44.0952 27.0787 44.3964 26.1148L44.5754 25.5463L41.2383 16.195H43.2976L45.6173 23.7832H45.6579L47.9776 16.195H49.9799L46.5207 26.0159Z" fill="black"/>
</g>
<g clip-path="url(#clip1_2343_1565)">
<path d="M135.96 0.580078H86.1654C84.2403 0.580078 82.6798 2.14064 82.6798 4.0657V35.9342C82.6798 37.8593 84.2403 39.4199 86.1654 39.4199H135.96C137.885 39.4199 139.446 37.8593 139.446 35.9342V4.0657C139.446 2.14064 137.885 0.580078 135.96 0.580078Z" fill="white" stroke="#D9D9D9"/>
<path fill-rule="evenodd" clip-rule="evenodd" d="M109.985 24.1012V19.6087L112.415 19.6078C113.417 19.6084 114.259 19.2936 114.941 18.6633C115.631 18.065 116.016 17.205 115.996 16.3086C116.01 15.4171 115.625 14.5634 114.941 13.967C114.265 13.3334 113.356 12.9876 112.415 13.0066H108.514V24.1012H109.985ZM109.985 18.2454V14.3726L112.451 14.3717C113.001 14.3566 113.531 14.5711 113.907 14.9603C114.285 15.3164 114.498 15.8054 114.498 16.3161C114.498 16.8267 114.285 17.3158 113.907 17.6718C113.527 18.0529 112.998 18.2611 112.451 18.2454H109.985Z" fill="#5F6368"/>
<path fill-rule="evenodd" clip-rule="evenodd" d="M121.961 17.107C121.332 16.5439 120.473 16.2625 119.386 16.2625C117.989 16.2625 116.935 16.7581 116.222 17.7496L117.518 18.5402C117.996 17.8685 118.647 17.5327 119.468 17.5327C119.992 17.5268 120.499 17.7124 120.888 18.0524C121.276 18.3631 121.499 18.8263 121.496 19.3139V19.6396C120.931 19.3298 120.211 19.1748 119.338 19.1748C118.314 19.176 117.496 19.4086 116.884 19.8725C116.271 20.3362 115.964 20.961 115.964 21.7464C115.951 22.4617 116.271 23.1447 116.836 23.6055C117.417 24.1012 118.139 24.3491 119.002 24.3491C120.014 24.3491 120.824 23.9153 121.433 23.0478H121.497V24.1012H122.904V19.4227C122.904 18.4419 122.59 17.6699 121.961 17.107ZM117.971 22.707C117.663 22.4918 117.481 22.1455 117.483 21.7774C117.483 21.364 117.683 21.0197 118.086 20.7364C118.485 20.4572 118.983 20.3177 119.581 20.3177C120.401 20.3177 121.041 20.4947 121.499 20.8488C121.499 21.4473 121.256 21.9686 120.769 22.4131C120.33 22.8383 119.735 23.0777 119.114 23.0787C118.7 23.0862 118.296 22.9549 117.971 22.707Z" fill="#5F6368"/>
<path fill-rule="evenodd" clip-rule="evenodd" d="M130.98 16.5105L126.069 27.4476H124.55L126.373 23.6207L123.143 16.5105H124.742L127.076 21.9635H127.108L129.379 16.5105H130.98Z" fill="#5F6368"/>
<path fill-rule="evenodd" clip-rule="evenodd" d="M104.04 18.6402C104.041 18.2059 104.003 17.7723 103.927 17.3442H97.7232V19.799H101.276C101.13 20.5912 100.655 21.291 99.9626 21.7359V23.3293H102.083C103.325 22.2201 104.04 20.5798 104.04 18.6402Z" fill="#4285F4"/>
<path fill-rule="evenodd" clip-rule="evenodd" d="M97.7232 24.8688C99.4985 24.8688 100.993 24.3039 102.083 23.3302L99.9626 21.7368C99.3724 22.1245 98.6123 22.3458 97.7232 22.3458C96.0074 22.3458 94.551 21.2251 94.0303 19.7148H91.8456V21.357C92.9623 23.5099 95.2365 24.8686 97.7232 24.8688Z" fill="#34A853"/>
<path fill-rule="evenodd" clip-rule="evenodd" d="M94.0302 19.7149C93.7549 18.9236 93.7549 18.0665 94.0302 17.2752V15.6331H91.8456C90.9116 17.4337 90.9116 19.5564 91.8456 21.357L94.0302 19.7149Z" fill="#FBBC04"/>
<path fill-rule="evenodd" clip-rule="evenodd" d="M97.7232 14.6445C98.6614 14.6296 99.5678 14.973 100.247 15.6006L102.124 13.7814C100.934 12.6979 99.3565 12.1031 97.7232 12.1215C95.2365 12.1216 92.9623 13.4804 91.8456 15.6332L94.0303 17.2753C94.551 15.7652 96.0074 14.6445 97.7232 14.6445Z" fill="#EA4335"/>
</g>
<g clip-path="url(#clip2_2343_1565)">
<path d="M217.138 0.467529H168.931C166.406 0.467529 164.359 2.51423 164.359 5.03896V34.961C164.359 37.4858 166.406 39.5325 168.931 39.5325H217.138C219.663 39.5325 221.71 37.4858 221.71 34.961V5.03896C221.71 2.51423 219.663 0.467529 217.138 0.467529Z" fill="white" stroke="#D9D9D9"/>
<path fill-rule="evenodd" clip-rule="evenodd" d="M181.606 27.0787H178.082L175.439 16.9951C175.313 16.5314 175.047 16.1213 174.655 15.928C173.677 15.4424 172.6 15.0558 171.424 14.8609V14.4726H177.102C177.886 14.4726 178.473 15.0558 178.571 15.7331L179.943 23.0067L183.466 14.4726H186.892L181.606 27.0787ZM188.852 27.0787H185.523L188.264 14.4726H191.593L188.852 27.0787ZM195.899 17.9649C195.997 17.286 196.585 16.8977 197.271 16.8977C198.348 16.8002 199.522 16.9952 200.502 17.4792L201.089 14.765C200.11 14.3768 199.032 14.1819 198.054 14.1819C194.823 14.1819 192.473 15.928 192.473 18.3514C192.473 20.1951 194.138 21.163 195.313 21.7462C196.585 22.3277 197.075 22.7159 196.977 23.2974C196.977 24.1696 195.997 24.5579 195.019 24.5579C193.844 24.5579 192.668 24.2671 191.593 23.7814L191.005 26.4972C192.18 26.9812 193.452 27.1762 194.628 27.1762C198.25 27.272 200.502 25.5275 200.502 22.9092C200.502 19.6118 195.899 19.4186 195.899 17.9649ZM212.151 27.0787L209.508 14.4726H206.669C206.081 14.4726 205.494 14.8609 205.298 15.4424L200.404 27.0787H203.83L204.514 25.2368H208.725L209.116 27.0787H212.151ZM207.159 17.8675L208.137 22.6184H205.396L207.159 17.8675Z" fill="#172B85"/>
</g>
<g clip-path="url(#clip3_2343_1565)">
<path d="M300.098 0.509766H250.123C248.191 0.509766 246.625 2.07599 246.625 4.00802V35.992C246.625 37.9241 248.191 39.4903 250.123 39.4903H300.098C302.03 39.4903 303.597 37.9241 303.597 35.992V4.00802C303.597 2.07599 302.03 0.509766 300.098 0.509766Z" fill="white" stroke="#D9D9D9"/>
<path fill-rule="evenodd" clip-rule="evenodd" d="M267.364 30.8851V32.3611V33.8373H266.717V33.4789C266.511 33.7447 266.2 33.9116 265.777 33.9116C264.943 33.9116 264.288 33.2633 264.288 32.3611C264.288 31.4598 264.943 30.8108 265.777 30.8108C266.2 30.8108 266.511 30.9776 266.717 31.2435V30.8851H267.364ZM265.857 31.416C265.297 31.416 264.955 31.8423 264.955 32.3611C264.955 32.8801 265.297 33.3064 265.857 33.3064C266.393 33.3064 266.754 32.8985 266.754 32.3611C266.754 31.8239 266.393 31.416 265.857 31.416ZM289.227 32.3611C289.227 31.8423 289.569 31.416 290.129 31.416C290.665 31.416 291.026 31.8239 291.026 32.3611C291.026 32.8985 290.665 33.3064 290.129 33.3064C289.569 33.3064 289.227 32.8801 289.227 32.3611ZM291.636 29.6995V32.3611V33.8373H290.989V33.4789C290.783 33.7447 290.472 33.9116 290.049 33.9116C289.215 33.9116 288.56 33.2633 288.56 32.3611C288.56 31.4598 289.215 30.8108 290.049 30.8108C290.472 30.8108 290.783 30.9776 290.989 31.2435V29.6995H291.636ZM275.395 31.3856C275.811 31.3856 276.079 31.645 276.148 32.1018H274.604C274.673 31.6755 274.933 31.3856 275.395 31.3856ZM273.925 32.3611C273.925 31.4407 274.535 30.8108 275.407 30.8108C276.241 30.8108 276.814 31.4407 276.82 32.3611C276.82 32.4474 276.814 32.528 276.807 32.6079H274.598C274.691 33.1395 275.071 33.3311 275.488 33.3311C275.786 33.3311 276.104 33.2194 276.354 33.0222L276.671 33.498C276.309 33.8005 275.899 33.9116 275.451 33.9116C274.56 33.9116 273.925 33.3001 273.925 32.3611ZM283.219 32.3611C283.219 31.8423 283.562 31.416 284.122 31.416C284.657 31.416 285.019 31.8239 285.019 32.3611C285.019 32.8985 284.657 33.3064 284.122 33.3064C283.562 33.3064 283.219 32.8801 283.219 32.3611ZM285.628 30.8851V32.3611V33.8373H284.981V33.4789C284.776 33.7447 284.465 33.9116 284.042 33.9116C283.207 33.9116 282.553 33.2633 282.553 32.3611C282.553 31.4598 283.207 30.8108 284.042 30.8108C284.465 30.8108 284.776 30.9776 284.981 31.2435V30.8851H285.628ZM279.566 32.3611C279.566 33.2569 280.194 33.9116 281.153 33.9116C281.601 33.9116 281.9 33.8126 282.223 33.5594L281.913 33.0406C281.67 33.2138 281.415 33.3064 281.134 33.3064C280.617 33.3001 280.237 32.9295 280.237 32.3611C280.237 31.7928 280.617 31.4223 281.134 31.416C281.415 31.416 281.67 31.5086 281.913 31.6818L282.223 31.1628C281.9 30.9098 281.601 30.8108 281.153 30.8108C280.194 30.8108 279.566 31.4655 279.566 32.3611ZM287.123 31.2435C287.291 30.984 287.534 30.8108 287.907 30.8108C288.038 30.8108 288.225 30.8356 288.368 30.8914L288.169 31.4966C288.032 31.4407 287.895 31.4223 287.764 31.4223C287.341 31.4223 287.129 31.6938 287.129 32.1823V33.8373H286.481V30.8851H287.123V31.2435ZM270.564 31.1198C270.252 30.9162 269.823 30.8108 269.35 30.8108C268.596 30.8108 268.111 31.1692 268.111 31.756C268.111 32.2375 268.472 32.5343 269.138 32.627L269.443 32.6701C269.798 32.7197 269.966 32.8122 269.966 32.979C269.966 33.2074 269.729 33.3374 269.287 33.3374C268.839 33.3374 268.516 33.1954 268.298 33.0285L267.993 33.5283C268.348 33.7878 268.796 33.9116 269.281 33.9116C270.14 33.9116 270.638 33.51 270.638 32.9479C270.638 32.429 270.246 32.1575 269.599 32.065L269.294 32.0211C269.014 31.9843 268.789 31.9292 268.789 31.7312C268.789 31.515 269.001 31.3856 269.356 31.3856C269.736 31.3856 270.103 31.5276 270.284 31.6387L270.564 31.1198ZM278.128 31.2435C278.295 30.984 278.538 30.8108 278.911 30.8108C279.043 30.8108 279.229 30.8356 279.372 30.8914L279.173 31.4966C279.036 31.4407 278.899 31.4223 278.768 31.4223C278.345 31.4223 278.133 31.6938 278.133 32.1823V33.8373H277.486V30.8851H278.128V31.2435ZM273.39 30.8851H272.332V29.9893H271.678V30.8851H271.074V31.4718H271.678V32.8186C271.678 33.5037 271.946 33.9116 272.711 33.9116C272.992 33.9116 273.315 33.8253 273.521 33.6832L273.334 33.1331C273.141 33.2442 272.929 33.3001 272.761 33.3001C272.437 33.3001 272.332 33.1021 272.332 32.8058V31.4718H273.39V30.8851ZM263.716 31.9843V33.8373H263.062V32.1943C263.062 31.6938 262.851 31.416 262.409 31.416C261.979 31.416 261.681 31.6882 261.681 32.2007V33.8373H261.026V32.1943C261.026 31.6938 260.809 31.416 260.38 31.416C259.937 31.416 259.651 31.6882 259.651 32.2007V33.8373H258.997V30.8851H259.645V31.2491C259.888 30.9035 260.199 30.8108 260.516 30.8108C260.971 30.8108 261.294 31.0088 261.5 31.336C261.774 30.9219 262.166 30.8044 262.546 30.8108C263.268 30.8172 263.716 31.2866 263.716 31.9843Z" fill="#231F20"/>
<path d="M280.155 25.8685H270.349V8.38403H280.155V25.8685Z" fill="#FF5F00"/>
<path d="M270.971 17.1268C270.971 13.58 272.645 10.4206 275.251 8.38458C273.345 6.89573 270.94 6.00708 268.326 6.00708C262.137 6.00708 257.12 10.9855 257.12 17.1268C257.12 23.2682 262.137 28.2466 268.326 28.2466C270.94 28.2466 273.345 27.3579 275.251 25.8691C272.645 23.8331 270.971 20.6737 270.971 17.1268Z" fill="#EB001B"/>
<path d="M293.384 17.1268C293.384 23.2682 288.367 28.2466 282.178 28.2466C279.563 28.2466 277.158 27.3579 275.251 25.8691C277.858 23.8331 279.532 20.6737 279.532 17.1268C279.532 13.58 277.858 10.4206 275.251 8.38458C277.158 6.89573 279.563 6.00708 282.178 6.00708C288.367 6.00708 293.384 10.9855 293.384 17.1268Z" fill="#F79E1B"/>
</g>
<defs>
<clipPath id="clip0_2343_1565">
<rect width="58.1818" height="40" fill="white"/>
</clipPath>
<clipPath id="clip1_2343_1565">
<rect width="57.7617" height="40" fill="white" transform="translate(82.1818)"/>
</clipPath>
<clipPath id="clip2_2343_1565">
<rect width="58.1818" height="40" fill="white" transform="translate(163.944)"/>
</clipPath>
<clipPath id="clip3_2343_1565">
<rect width="57.971" height="40" fill="white" transform="translate(246.125)"/>
</clipPath>
</defs>
</svg>
