<?xml version="1.0" encoding="utf-8"?>
<!-- Generator: Adobe Illustrator 27.8.0, SVG Export Plug-In . SVG Version: 6.00 Build 0)  -->
<svg version="1.1" id="Layer_2_00000064343331440641858800000007084751139407474876_"
	 xmlns="http://www.w3.org/2000/svg" xmlns:xlink="http://www.w3.org/1999/xlink" x="0px" y="0px" viewBox="0 0 159.6 135.2"
	 style="enable-background:new 0 0 159.6 135.2;" xml:space="preserve">
<style type="text/css">
	.st0{fill:#002147;}
</style>
<path class="st0" d="M79.7,96.7c-6.9-7.1-6.3-15.6-3.7-20.1c4.7-8.2,0-11.6,0-11.6s-5.7-0.8-5.7-4.9c0-4.2,8.3-7,4.9-16
	c-1.9-7.6-17.9-7.6-15.8,8.3c-5.2-3.9-4.8-9.9-0.3-14.1c-6-1.5-13.7,3.8-16,6.4s-5.2,10.7,5.7,20.9c-6.1-1.2-11.6-5.6-11.6-10.4
	c-10,24.3,14.1,39.3,24.3,23.6c4.2-6.5-12.7-9.7-3-15.3c8.9-5.1,17.4,24.3-6.2,24.3c-20.1,0-22.7-25-20-36.8
	C35,39.2,47.1,28,62.1,33s10.4-11.9-3.6-7c-11.9,4.2-10.5-9.7-3.5-11.1c8.4-1.7,18.1,10.6,21.5,14.6C73.8,24,73.5,6.3,79.7,0
	c6,6.2,6.1,24,3.3,29.5c3.5-4,13.1-16.3,21.5-14.6c6.9,1.4,8.3,15.3-3.5,11.1c-14-4.9-18.8,22.5-3.8,17.5c15-5,25.4-0.1,28.9,8.9
	s1.4,35.4-18.8,35.4c-23.6,0-15.2-29.4-6.2-24.3c9.7,5.6-5.2,8.1-2.1,13.2c9.7,16,35.4-0.7,22.2-22.9c0,4.9-4.3,10.6-10.4,11.8
	c5.6-5.6,6.2-16.7-0.7-16S92,64.3,84.4,44.1c-3.5,9,4.9,11.8,4.9,16S83.5,65,83.5,65s-4.7,3.4,0,11.6C86.1,81.1,85.9,89.6,79.7,96.7
	L79.7,96.7z"/>
<path class="st0" d="M0,119.8c0-7.5,6.8-15.4,14.9-15.4c2.9,0,4.4,1.1,5.1,1.5l0.9-0.9l0.3,0.1l-1.9,6.9l-0.5-0.1
	c0.1-0.5,0.1-1.7,0.1-2.1c0-1.1-0.5-4.9-3.9-4.9c-5.8,0-11.8,7.9-11.8,15.8c0,4.5,2.1,6.6,5.1,6.6c4.4,0,6.9-3.2,9-8.3l0.5,0.2
	l-2.6,8.6h-0.4v-2.9c-1.6,1.8-4.3,3.3-7.3,3.3C2.7,128.1,0,124.4,0,119.8L0,119.8z"/>
<path class="st0" d="M25.6,126.9c0-0.9,0.3-1.7,0.5-2.3c0.5-1.5,2.4-6.1,2.8-7.2c0.4-1.2,0.7-2,0.7-2.5c0-0.4,0-0.7-0.4-0.7
	c-0.5,0-1.4,0.5-2,1.1c-1.5,1.5-3.2,3.3-3.8,4.9c-0.4,1.1-1.7,4.7-2.6,7.5h-2.5l7.7-21.5c0.2-0.5,0.2-0.9,0.2-1.1l-1.9-0.3v-0.3H29
	l-4.8,13.3l0.1,0c2.3-3.4,5.3-5.5,6.9-5.5c0.7,0,1.1,0.8,1.1,1.5s-0.3,1.7-0.6,2.7l-3.5,9.5h0.1c1-0.6,2.7-2.2,3.8-3.4l0.2,0.2
	c-0.7,1-4.1,5-5.5,5C26.1,127.9,25.6,127.4,25.6,126.9L25.6,126.9z"/>
<path class="st0" d="M36.8,118.7c0.8-2.3,1.2-3.9,1.2-4.1s0-0.3-0.2-0.3c-0.3,0-1.7,1.2-3.3,3.3l-0.3-0.2c2-3.3,4.2-5,5.3-5
	c0.5,0,0.8,0.3,0.8,1c0,0.7-0.5,2.5-0.9,3.7l0.1,0c2.2-3.6,4.2-4.6,5.1-4.6s1.6,0.7,1.6,1.5c0,0.8-0.6,1.6-1.6,1.6
	c-1.2,0-1.4-0.9-1.7-1.6c-1.2,0.3-3.4,3.3-4.2,5.4c-1.2,3.3-2,5.7-3.1,8.3h-2.6C34.7,124.3,36.1,120.6,36.8,118.7L36.8,118.7z"/>
<path class="st0" d="M44.2,123.2c0-5.5,4.4-10.8,7.8-10.8c1.8,0,3,2,3,5c0,4.1-3.6,10.5-7.7,10.5C45.7,127.9,44.2,126.3,44.2,123.2z
	 M53.1,114.7c0-1.4-0.2-1.9-0.8-1.9c-2,0-6.2,8.3-6.2,12.5c0,1.5,0.3,2,1,2C48.7,127.4,53,120.1,53.1,114.7L53.1,114.7z"/>
<path class="st0" d="M63.1,126.9c0-0.9,0.3-1.7,0.5-2.3c0.5-1.5,2.4-6.1,2.8-7.2c0.4-1.2,0.7-2,0.7-2.5c0-0.4,0-0.7-0.4-0.7
	c-0.5,0-1.4,0.5-2.1,1.1c-1.5,1.5-2.6,2.8-3.6,5c-0.6,1.2-2,4.8-3.1,7.4h-2.6c1.5-3.5,2.9-6.8,3.7-8.8c0.9-2.3,1.4-3.7,1.4-4
	c0-0.3,0-0.5-0.3-0.5c-0.5,0-1.8,1.4-3.4,3.3l-0.3-0.2c2-2.9,4.5-5.2,5.8-5.2c0.4,0,0.7,0.3,0.7,1c0,0.7-0.6,2.8-1.3,4.5l0.1,0
	c2.3-3.5,5.2-5.5,6.9-5.5c0.7,0,1,0.8,1,1.5s-0.3,1.7-0.6,2.7l-3.6,9.5h0.1c1-0.6,2.7-2.2,3.8-3.4l0.2,0.2c-0.7,1-4.1,5-5.5,5
	C63.5,127.9,63.1,127.4,63.1,126.9L63.1,126.9z"/>
<path class="st0" d="M71,123.2c0-5.5,4.4-10.8,7.8-10.8c1.8,0,3,2,3,5c0,4.1-3.6,10.5-7.7,10.5C72.6,127.9,71,126.3,71,123.2z
	 M79.9,114.7c0-1.4-0.2-1.9-0.8-1.9c-2.1,0-6.2,8.3-6.2,12.5c0,1.5,0.3,2,1,2C75.6,127.4,79.9,120.1,79.9,114.7L79.9,114.7z"/>
<path class="st0" d="M90.3,125.2l-1.4,1.6l-0.3-0.1l2.3-7.5l0.4,0.1c-0.1,0.3-0.1,0.9-0.1,1.4c0,3.5,1.9,6.9,5.4,6.9
	c2.7,0,4.8-1.8,4.8-4.6c0-1.4-0.5-2.6-1.8-4c-1.2-1.4-2.9-2.9-4-4.5c-0.7-1.1-1.4-2.1-1.4-3.9c0-2.8,2.5-6.1,7.1-6.1
	c2.3,0,4.1,1.1,4.9,1.7l1-1l0.3,0.1l-1.7,7.3l-0.4-0.1c0-0.3,0.1-0.6,0.1-0.9c0-1.8-0.5-6.6-4.3-6.6c-2.6,0-4.1,2.1-4.1,4.2
	c0,1.7,0.6,2.8,1.8,4.3c1,1.2,2.3,2.4,3.3,3.5c1.4,1.7,2.1,3.1,2.1,4.7c0,4.2-3.8,6.4-7.7,6.4C93,128,90.9,125.8,90.3,125.2
	L90.3,125.2z"/>
<path class="st0" d="M107,124.3c0-2.9,3.7-6.2,6.8-9.6h-4.3c-1.8,0-2.8,0.9-2.8,1.8c0,0.5,0.4,0.5,0.5,0.5c0.3,0,0.5-0.1,0.8-0.1
	c0.5,0,0.7,0.5,0.7,0.9c0,0.5-0.5,1-1.1,1c-1,0-1.3-1.1-1.3-2.3c0-1.4,1.6-3.9,4.1-3.9h2.8c0.7,0,2.1,0,2.4-0.2l0.2,0.2
	c-0.7,1-1.4,1.9-2.2,2.9c-1.8,2.2-4.3,5.4-4.3,7.8c0,1.9,1.1,2.8,2.9,2.8c0.7,0,1.2-0.3,2.1-0.9c-0.2-0.7-0.3-1.4-0.3-2.3
	c0-4.8,3.6-10.2,5.9-10.2c1.1,0,1.5,1.1,1.5,2.3c0,2.8-2.7,6.7-5.3,9.1c0.5,1,1,1.6,2.6,1.6c3.4,0,6.7-6,6.7-9
	c0-0.8-0.1-1.5-0.3-1.5c-0.9-0.2-1.7-0.3-1.7-1.5c0-1,0.7-1.3,1.2-1.3c0.9,0,1.4,1.1,1.4,3.6c0,4.8-4.1,12-8.3,12
	c-1.3,0-2.6-0.8-3.3-2.3c-1.5,1.5-2.4,2.3-3.7,2.3C108.7,127.9,107,126.8,107,124.3L107,124.3z M119.6,116.7c0-1-0.1-2-1.1-2
	c-1.8,0-3,3.3-3,6c0,1.1,0.1,2.2,0.5,3.1C118,121.8,119.6,118.9,119.6,116.7L119.6,116.7z"/>
<path class="st0" d="M126.5,125c0-5.2,4.5-12.6,8.6-12.6c1.7,0,2.1,1,2.1,1.7c0,1.6-1.3,3.9-7.5,6.1c-0.5,1.5-0.8,2.9-0.8,3.7
	c0,1.5,0.4,2.1,1.6,2.1c1.6,0,3.1-1.3,4.3-3.4l0.4,0.2c-0.9,1.9-3.8,5-6.4,5C127.6,127.9,126.5,127.2,126.5,125L126.5,125z
	 M135.1,114.4c0-1-0.4-1.4-0.9-1.4c-1.1,0-3.3,3.6-4.4,6.8C133.6,118.3,135.1,116.5,135.1,114.4L135.1,114.4z"/>
<path class="st0" d="M136.1,125c0-5.2,4.5-12.6,8.6-12.6c1.7,0,2.1,1,2.1,1.7c0,1.6-1.3,3.9-7.5,6.1c-0.5,1.5-0.8,2.9-0.8,3.7
	c0,1.5,0.4,2.1,1.6,2.1c1.6,0,3.1-1.3,4.3-3.4l0.4,0.2c-0.9,1.9-3.8,5-6.4,5C137.3,127.9,136.1,127.2,136.1,125L136.1,125z
	 M144.8,114.4c0-1-0.4-1.4-0.9-1.4c-1.1,0-3.3,3.6-4.4,6.8C143.3,118.3,144.8,116.5,144.8,114.4L144.8,114.4z"/>
<path class="st0" d="M141.8,134.8l1.4-0.1c0.5-0.1,0.8-0.4,1.1-1.1l6.9-19.2c-1.3,0.9-2.7,2.1-4.1,3.7l-0.3-0.2
	c1.7-2.1,3.2-3.5,4.7-4.3l1.5-3.6l2.6-0.5l-1.3,3.3c0.5-0.1,1.1-0.2,1.6-0.2c2.5,0,3.8,1.5,3.8,4.3c0,4.4-4.2,11.1-8.6,11.1
	c-1.1,0-1.6-0.3-2.1-0.7c-0.6,1.8-1.3,3.7-1.9,5.5c-0.1,0.3-0.4,1.3-0.4,1.5c0,0.5,1.1,0.5,1.9,0.6v0.4h-6.9V134.8L141.8,134.8z
	 M157,117c0-2.2-1-3.9-2.2-3.9c-0.3,0-0.5,0-0.9,0.2c-1.4,3.7-3,8.2-4.6,12.8c0.4,0.7,0.8,1.3,1.7,1.3
	C154.2,127.3,157.1,120.3,157,117L157,117z"/>
</svg>
