<svg width="92" height="62" viewBox="0 0 92 62" fill="none" xmlns="http://www.w3.org/2000/svg">
<g clip-path="url(#clip0_2343_2842)">
<path d="M46.1245 40C43.2322 37.0796 43.4983 33.5642 44.5945 31.6844C46.5554 28.3127 44.5945 26.9043 44.5945 26.9043C44.5945 26.9043 42.217 26.5881 42.217 24.8635C42.217 23.1388 45.6878 21.9891 44.2416 18.2524C43.4491 15.0905 36.7969 15.0905 37.6646 21.7016C35.4954 20.0834 35.6487 17.6114 37.52 15.8494C35.0384 15.2458 31.8165 17.4044 30.8794 18.5024C29.9423 19.6005 28.716 22.9462 33.251 27.163C30.7145 26.66 28.4094 24.8635 28.4094 22.8514C24.259 32.929 34.2922 39.1147 38.5323 32.6243C40.2821 29.9483 33.251 28.6002 37.3002 26.3007C41.0081 24.1937 44.5308 36.361 34.6972 36.361C26.3096 36.361 25.2279 26.0132 26.3848 21.1268C27.5417 16.2403 32.5771 11.5895 38.8215 13.6533C45.0659 15.7172 43.1628 8.74389 37.3262 10.779C32.3805 12.5036 32.9589 6.75481 35.8512 6.17994C39.3595 5.48146 43.3711 10.5691 44.8172 12.2162C43.6603 9.91664 43.5562 2.60132 46.1216 0C48.6061 2.57833 48.6523 9.91664 47.4954 12.2162C48.9416 10.5691 52.9531 5.48146 56.4614 6.17994C59.3537 6.75481 59.9322 12.5036 54.9864 10.779C49.1498 8.74389 47.1541 20.0776 53.3985 18.0167C59.6429 15.9557 63.9813 17.9649 65.4275 21.7016C66.8736 25.4383 66.0059 36.361 57.6183 36.361C47.7846 36.361 51.3074 24.1937 55.0153 26.3007C59.0645 28.6002 52.8548 29.6493 54.1476 31.762C58.1968 38.3731 68.8982 31.4746 63.4029 22.2765C63.4029 24.2886 61.601 26.66 59.0645 27.163C61.3783 24.8635 61.6675 20.2644 58.7752 20.5519C55.883 20.8393 51.2554 26.5881 48.0739 18.2524C46.6277 21.9891 50.0985 23.1388 50.0985 24.8635C50.0985 26.5881 47.721 26.9043 47.721 26.9043C47.721 26.9043 45.7601 28.3127 47.721 31.6844C48.8143 33.5642 48.7246 37.0796 46.1216 40H46.1245Z" fill="#121212"/>
</g>
<path d="M4.56853 49.536C4.96053 49.536 5.29253 49.604 5.56453 49.74C5.83653 49.868 6.12053 50.06 6.41653 50.316C6.50453 50.388 6.58053 50.424 6.64453 50.424C6.80453 50.424 6.90853 50.184 6.95653 49.704H7.23253C7.20053 50.184 7.18453 51.024 7.18453 52.224H6.90853C6.82853 51.808 6.74853 51.5 6.66853 51.3C6.58853 51.1 6.46853 50.896 6.30853 50.688C6.08453 50.392 5.81653 50.168 5.50453 50.016C5.19253 49.856 4.86453 49.776 4.52053 49.776C4.04853 49.776 3.63653 49.92 3.28453 50.208C2.94053 50.496 2.67253 50.912 2.48053 51.456C2.28853 52 2.19253 52.64 2.19253 53.376C2.19253 54.128 2.29653 54.772 2.50453 55.308C2.72053 55.836 3.00853 56.24 3.36853 56.52C3.73653 56.792 4.14853 56.928 4.60453 56.928C4.95653 56.928 5.29253 56.852 5.61253 56.7C5.94053 56.54 6.21653 56.312 6.44053 56.016C6.59253 55.808 6.70453 55.588 6.77653 55.356C6.85653 55.124 6.92853 54.792 6.99253 54.36H7.26853C7.26853 55.616 7.28453 56.496 7.31653 57H7.04053C7.01653 56.752 6.98053 56.572 6.93253 56.46C6.88453 56.34 6.82053 56.28 6.74053 56.28C6.67653 56.28 6.59653 56.316 6.50053 56.388C6.19653 56.644 5.90053 56.84 5.61253 56.976C5.32453 57.104 4.97253 57.168 4.55653 57.168C3.84453 57.168 3.22053 57.024 2.68453 56.736C2.14853 56.44 1.73253 56.012 1.43653 55.452C1.14053 54.884 0.992532 54.208 0.992532 53.424C0.992532 52.656 1.14453 51.98 1.44853 51.396C1.75253 50.804 2.17653 50.348 2.72053 50.028C3.26453 49.7 3.88053 49.536 4.56853 49.536ZM16.4955 49.944C16.2075 49.96 15.9955 49.992 15.8595 50.04C15.7315 50.088 15.6435 50.18 15.5955 50.316C15.5475 50.452 15.5235 50.672 15.5235 50.976V55.728C15.5235 56.032 15.5475 56.252 15.5955 56.388C15.6435 56.524 15.7315 56.616 15.8595 56.664C15.9955 56.712 16.2075 56.744 16.4955 56.76V57C16.1595 56.976 15.6475 56.964 14.9595 56.964C14.3195 56.964 13.8115 56.976 13.4355 57V56.76C13.7235 56.744 13.9315 56.712 14.0595 56.664C14.1955 56.616 14.2875 56.524 14.3355 56.388C14.3835 56.252 14.4075 56.032 14.4075 55.728V53.34H10.7475V55.728C10.7475 56.032 10.7715 56.252 10.8195 56.388C10.8675 56.524 10.9555 56.616 11.0835 56.664C11.2195 56.712 11.4315 56.744 11.7195 56.76V57C11.3515 56.976 10.8435 56.964 10.1955 56.964C9.50747 56.964 8.99547 56.976 8.65947 57V56.76C8.94747 56.744 9.15547 56.712 9.28347 56.664C9.41947 56.616 9.51147 56.524 9.55947 56.388C9.60747 56.252 9.63147 56.032 9.63147 55.728V50.976C9.63147 50.672 9.60747 50.452 9.55947 50.316C9.51147 50.18 9.41947 50.088 9.28347 50.04C9.15547 49.992 8.94747 49.96 8.65947 49.944V49.704C8.99547 49.728 9.50747 49.74 10.1955 49.74C10.8355 49.74 11.3435 49.728 11.7195 49.704V49.944C11.4315 49.96 11.2195 49.992 11.0835 50.04C10.9555 50.088 10.8675 50.18 10.8195 50.316C10.7715 50.452 10.7475 50.672 10.7475 50.976V53.1H14.4075V50.976C14.4075 50.672 14.3835 50.452 14.3355 50.316C14.2875 50.18 14.1955 50.088 14.0595 50.04C13.9315 49.992 13.7235 49.96 13.4355 49.944V49.704C13.8035 49.728 14.3115 49.74 14.9595 49.74C15.6475 49.74 16.1595 49.728 16.4955 49.704V49.944ZM24.6871 56.496C24.5351 56.712 24.3591 56.88 24.1591 57C23.9671 57.112 23.7351 57.168 23.4631 57.168C22.7911 57.168 22.3791 56.864 22.2271 56.256L21.8551 54.756C21.7431 54.308 21.5751 54.008 21.3511 53.856C21.1351 53.704 20.8111 53.628 20.3791 53.628H19.6951V55.728C19.6951 56.032 19.7191 56.252 19.7671 56.388C19.8151 56.524 19.9031 56.616 20.0311 56.664C20.1671 56.712 20.3791 56.744 20.6671 56.76V57C20.2991 56.976 19.7911 56.964 19.1431 56.964C18.4551 56.964 17.9431 56.976 17.6071 57V56.76C17.8951 56.744 18.1031 56.712 18.2311 56.664C18.3671 56.616 18.4591 56.524 18.5071 56.388C18.5551 56.252 18.5791 56.032 18.5791 55.728V50.976C18.5791 50.672 18.5551 50.452 18.5071 50.316C18.4591 50.18 18.3671 50.088 18.2311 50.04C18.1031 49.992 17.8951 49.96 17.6071 49.944V49.704C17.9431 49.728 18.4311 49.74 19.0711 49.74L20.2951 49.728C20.4311 49.72 20.5871 49.716 20.7631 49.716C21.6591 49.716 22.3431 49.884 22.8151 50.22C23.2951 50.556 23.5351 50.992 23.5351 51.528C23.5351 51.992 23.3471 52.416 22.9711 52.8C22.6031 53.184 21.9951 53.428 21.1471 53.532C21.3071 53.548 21.4431 53.564 21.5551 53.58C21.9791 53.644 22.3151 53.772 22.5631 53.964C22.8111 54.156 22.9871 54.464 23.0911 54.888L23.3551 55.98C23.4191 56.26 23.4871 56.46 23.5591 56.58C23.6391 56.692 23.7391 56.748 23.8591 56.748C24.0591 56.748 24.2791 56.612 24.5191 56.34L24.6871 56.496ZM20.4631 49.944C20.2471 49.944 20.0831 49.972 19.9711 50.028C19.8671 50.084 19.7951 50.184 19.7551 50.328C19.7151 50.472 19.6951 50.688 19.6951 50.976V53.388H20.4991C21.2031 53.388 21.6831 53.24 21.9391 52.944C22.2031 52.64 22.3351 52.212 22.3351 51.66C22.3351 51.084 22.1871 50.656 21.8911 50.376C21.6031 50.088 21.1271 49.944 20.4631 49.944ZM28.9765 49.536C29.7125 49.536 30.3565 49.684 30.9085 49.98C31.4685 50.268 31.9005 50.696 32.2045 51.264C32.5085 51.824 32.6605 52.496 32.6605 53.28C32.6605 54.048 32.5005 54.728 32.1805 55.32C31.8685 55.904 31.4325 56.36 30.8725 56.688C30.3125 57.008 29.6765 57.168 28.9645 57.168C28.2285 57.168 27.5805 57.024 27.0205 56.736C26.4685 56.44 26.0405 56.012 25.7365 55.452C25.4325 54.884 25.2805 54.208 25.2805 53.424C25.2805 52.656 25.4365 51.98 25.7485 51.396C26.0685 50.804 26.5085 50.348 27.0685 50.028C27.6285 49.7 28.2645 49.536 28.9765 49.536ZM28.9285 49.752C28.4405 49.752 28.0085 49.908 27.6325 50.22C27.2645 50.524 26.9805 50.952 26.7805 51.504C26.5805 52.048 26.4805 52.672 26.4805 53.376C26.4805 54.088 26.5925 54.716 26.8165 55.26C27.0405 55.804 27.3445 56.224 27.7285 56.52C28.1125 56.808 28.5405 56.952 29.0125 56.952C29.5005 56.952 29.9285 56.8 30.2965 56.496C30.6725 56.184 30.9605 55.756 31.1605 55.212C31.3605 54.66 31.4605 54.032 31.4605 53.328C31.4605 52.616 31.3485 51.988 31.1245 51.444C30.9005 50.9 30.5965 50.484 30.2125 50.196C29.8285 49.9 29.4005 49.752 28.9285 49.752ZM41.0875 49.944C40.8075 49.96 40.5995 50.004 40.4635 50.076C40.3275 50.14 40.2355 50.252 40.1875 50.412C40.1395 50.564 40.1155 50.792 40.1155 51.096V57.06H39.8395L35.0395 50.412V55.608C35.0395 55.92 35.0635 56.152 35.1115 56.304C35.1675 56.456 35.2715 56.568 35.4235 56.64C35.5755 56.704 35.8115 56.744 36.1315 56.76V57C35.8435 56.976 35.4355 56.964 34.9075 56.964C34.4275 56.964 34.0555 56.976 33.7915 57V56.76C34.0715 56.744 34.2795 56.704 34.4155 56.64C34.5515 56.568 34.6435 56.456 34.6915 56.304C34.7395 56.144 34.7635 55.912 34.7635 55.608V50.976C34.7635 50.672 34.7395 50.452 34.6915 50.316C34.6435 50.18 34.5515 50.088 34.4155 50.04C34.2875 49.992 34.0795 49.96 33.7915 49.944V49.704C34.0555 49.728 34.4275 49.74 34.9075 49.74C35.3395 49.74 35.7075 49.728 36.0115 49.704L39.8395 55.032V51.096C39.8395 50.784 39.8115 50.552 39.7555 50.4C39.7075 50.248 39.6075 50.14 39.4555 50.076C39.3035 50.004 39.0675 49.96 38.7475 49.944V49.704C39.0355 49.728 39.4435 49.74 39.9715 49.74C40.4515 49.74 40.8235 49.728 41.0875 49.704V49.944ZM45.7937 49.536C46.5297 49.536 47.1737 49.684 47.7257 49.98C48.2857 50.268 48.7177 50.696 49.0217 51.264C49.3257 51.824 49.4777 52.496 49.4777 53.28C49.4777 54.048 49.3177 54.728 48.9977 55.32C48.6857 55.904 48.2497 56.36 47.6897 56.688C47.1297 57.008 46.4937 57.168 45.7817 57.168C45.0457 57.168 44.3977 57.024 43.8377 56.736C43.2857 56.44 42.8577 56.012 42.5537 55.452C42.2497 54.884 42.0977 54.208 42.0977 53.424C42.0977 52.656 42.2537 51.98 42.5657 51.396C42.8857 50.804 43.3257 50.348 43.8857 50.028C44.4457 49.7 45.0817 49.536 45.7937 49.536ZM45.7457 49.752C45.2577 49.752 44.8257 49.908 44.4497 50.22C44.0817 50.524 43.7977 50.952 43.5977 51.504C43.3977 52.048 43.2977 52.672 43.2977 53.376C43.2977 54.088 43.4097 54.716 43.6337 55.26C43.8577 55.804 44.1617 56.224 44.5457 56.52C44.9297 56.808 45.3577 56.952 45.8297 56.952C46.3177 56.952 46.7457 56.8 47.1137 56.496C47.4897 56.184 47.7777 55.756 47.9777 55.212C48.1777 54.66 48.2777 54.032 48.2777 53.328C48.2777 52.616 48.1657 51.988 47.9417 51.444C47.7177 50.9 47.4137 50.484 47.0297 50.196C46.6457 49.9 46.2177 49.752 45.7457 49.752ZM56.3704 49.536C56.7224 49.536 56.9984 49.576 57.1984 49.656C57.4064 49.728 57.6184 49.836 57.8344 49.98C58.0104 50.092 58.1464 50.148 58.2424 50.148C58.3144 50.148 58.3704 50.108 58.4104 50.028C58.4504 49.94 58.4824 49.804 58.5064 49.62H58.7824C58.7424 50.036 58.7224 50.772 58.7224 51.828H58.4464C58.3984 51.252 58.2104 50.764 57.8824 50.364C57.5624 49.964 57.0944 49.764 56.4784 49.764C56.0544 49.764 55.7024 49.876 55.4224 50.1C55.1504 50.324 55.0144 50.608 55.0144 50.952C55.0144 51.2 55.0744 51.416 55.1944 51.6C55.3224 51.784 55.4824 51.944 55.6744 52.08C55.8744 52.208 56.1544 52.368 56.5144 52.56L56.9104 52.776C57.4064 53.04 57.8024 53.276 58.0984 53.484C58.4024 53.692 58.6464 53.932 58.8304 54.204C59.0144 54.468 59.1064 54.776 59.1064 55.128C59.1064 55.776 58.8704 56.28 58.3984 56.64C57.9344 56.992 57.3504 57.168 56.6464 57.168C56.2624 57.168 55.9464 57.128 55.6984 57.048C55.4584 56.968 55.2264 56.86 55.0024 56.724C54.8264 56.612 54.6904 56.556 54.5944 56.556C54.5224 56.556 54.4664 56.6 54.4264 56.688C54.3864 56.768 54.3544 56.9 54.3304 57.084H54.0544C54.0864 56.692 54.1024 55.812 54.1024 54.444H54.3784C54.4344 55.188 54.6344 55.788 54.9784 56.244C55.3224 56.7 55.8504 56.928 56.5624 56.928C56.9624 56.928 57.3064 56.816 57.5944 56.592C57.8904 56.36 58.0384 56.02 58.0384 55.572C58.0384 55.308 57.9624 55.076 57.8104 54.876C57.6584 54.668 57.4544 54.484 57.1984 54.324C56.9424 54.164 56.5864 53.964 56.1304 53.724C55.4744 53.388 54.9744 53.052 54.6304 52.716C54.2864 52.38 54.1144 51.944 54.1144 51.408C54.1144 50.816 54.3304 50.356 54.7624 50.028C55.2024 49.7 55.7384 49.536 56.3704 49.536ZM69.2043 49.74C69.7083 49.74 70.0563 49.728 70.2483 49.704V49.944C70.0323 49.992 69.8483 50.108 69.6963 50.292C69.5443 50.468 69.4043 50.748 69.2763 51.132L67.2123 57.06H67.0203L65.1723 52.488L63.2163 57.06H63.0243L60.5763 50.712C60.3843 50.216 60.1083 49.96 59.7483 49.944V49.704C60.0683 49.728 60.4963 49.74 61.0323 49.74C61.7203 49.74 62.2323 49.728 62.5683 49.704V49.944C62.2643 49.96 62.0483 50 61.9203 50.064C61.8003 50.12 61.7403 50.224 61.7403 50.376C61.7403 50.496 61.7843 50.688 61.8723 50.952L63.5763 55.596L65.0283 52.152L64.4523 50.712C64.2443 50.216 63.9683 49.96 63.6243 49.944V49.704C63.9523 49.728 64.3803 49.74 64.9083 49.74C65.5963 49.74 66.1083 49.728 66.4443 49.704V49.944C66.1403 49.96 65.9243 50 65.7963 50.064C65.6683 50.12 65.6043 50.228 65.6043 50.388C65.6043 50.524 65.6523 50.712 65.7483 50.952L67.4883 55.512L68.7723 51.756C68.9243 51.308 69.0003 50.956 69.0003 50.7C69.0003 50.436 68.9243 50.248 68.7723 50.136C68.6283 50.024 68.4083 49.96 68.1123 49.944V49.704C68.3523 49.728 68.7163 49.74 69.2043 49.74ZM76.7932 55.584C76.7932 56 76.8212 56.472 76.8772 57C76.3572 56.976 75.4812 56.964 74.2492 56.964C72.7692 56.964 71.6492 56.976 70.8892 57V56.76C71.1772 56.744 71.3852 56.712 71.5132 56.664C71.6492 56.616 71.7412 56.524 71.7892 56.388C71.8372 56.252 71.8612 56.032 71.8612 55.728V50.976C71.8612 50.672 71.8372 50.452 71.7892 50.316C71.7412 50.18 71.6492 50.088 71.5132 50.04C71.3852 49.992 71.1772 49.96 70.8892 49.944V49.704C71.6492 49.728 72.7692 49.74 74.2492 49.74C75.3692 49.74 76.1652 49.728 76.6372 49.704C76.5812 50.184 76.5532 50.616 76.5532 51C76.5532 51.312 76.5652 51.56 76.5892 51.744H76.3132C76.2572 51.088 76.1172 50.632 75.8932 50.376C75.6772 50.112 75.3212 49.98 74.8252 49.98H73.9492C73.6612 49.98 73.4492 50.004 73.3132 50.052C73.1852 50.092 73.0972 50.18 73.0492 50.316C73.0012 50.452 72.9772 50.672 72.9772 50.976V53.208H73.9732C74.2292 53.208 74.4252 53.144 74.5612 53.016C74.6972 52.88 74.7892 52.736 74.8372 52.584C74.8852 52.424 74.9292 52.224 74.9692 51.984H75.2452C75.2212 52.256 75.2092 52.552 75.2092 52.872V53.328C75.2092 53.64 75.2332 54.088 75.2812 54.672H75.0052C74.9572 54.288 74.8652 53.988 74.7292 53.772C74.5932 53.556 74.3412 53.448 73.9732 53.448H72.9772V55.728C72.9772 56.032 73.0012 56.252 73.0492 56.388C73.0972 56.524 73.1852 56.616 73.3132 56.664C73.4492 56.704 73.6612 56.724 73.9492 56.724H74.8252C75.2252 56.724 75.5412 56.66 75.7732 56.532C76.0052 56.404 76.1812 56.2 76.3012 55.92C76.4212 55.632 76.5052 55.232 76.5532 54.72H76.8292C76.8052 54.936 76.7932 55.224 76.7932 55.584ZM84.0299 55.584C84.0299 56 84.0579 56.472 84.1139 57C83.5939 56.976 82.7179 56.964 81.4859 56.964C80.0059 56.964 78.8859 56.976 78.1259 57V56.76C78.4139 56.744 78.6219 56.712 78.7499 56.664C78.8859 56.616 78.9779 56.524 79.0259 56.388C79.0739 56.252 79.0979 56.032 79.0979 55.728V50.976C79.0979 50.672 79.0739 50.452 79.0259 50.316C78.9779 50.18 78.8859 50.088 78.7499 50.04C78.6219 49.992 78.4139 49.96 78.1259 49.944V49.704C78.8859 49.728 80.0059 49.74 81.4859 49.74C82.6059 49.74 83.4019 49.728 83.8739 49.704C83.8179 50.184 83.7899 50.616 83.7899 51C83.7899 51.312 83.8019 51.56 83.8259 51.744H83.5499C83.4939 51.088 83.3539 50.632 83.1299 50.376C82.9139 50.112 82.5579 49.98 82.0619 49.98H81.1859C80.8979 49.98 80.6859 50.004 80.5499 50.052C80.4219 50.092 80.3339 50.18 80.2859 50.316C80.2379 50.452 80.2139 50.672 80.2139 50.976V53.208H81.2099C81.4659 53.208 81.6619 53.144 81.7979 53.016C81.9339 52.88 82.0259 52.736 82.0739 52.584C82.1219 52.424 82.1659 52.224 82.2059 51.984H82.4819C82.4579 52.256 82.4459 52.552 82.4459 52.872V53.328C82.4459 53.64 82.4699 54.088 82.5179 54.672H82.2419C82.1939 54.288 82.1019 53.988 81.9659 53.772C81.8299 53.556 81.5779 53.448 81.2099 53.448H80.2139V55.728C80.2139 56.032 80.2379 56.252 80.2859 56.388C80.3339 56.524 80.4219 56.616 80.5499 56.664C80.6859 56.704 80.8979 56.724 81.1859 56.724H82.0619C82.4619 56.724 82.7779 56.66 83.0099 56.532C83.2419 56.404 83.4179 56.2 83.5379 55.92C83.6579 55.632 83.7419 55.232 83.7899 54.72H84.0659C84.0419 54.936 84.0299 55.224 84.0299 55.584ZM87.4506 54.048V55.728C87.4506 56.032 87.4746 56.252 87.5226 56.388C87.5706 56.524 87.6586 56.616 87.7866 56.664C87.9226 56.712 88.1346 56.744 88.4226 56.76V57C88.0546 56.976 87.5466 56.964 86.8986 56.964C86.2106 56.964 85.6986 56.976 85.3626 57V56.76C85.6506 56.744 85.8586 56.712 85.9866 56.664C86.1226 56.616 86.2146 56.524 86.2626 56.388C86.3106 56.252 86.3346 56.032 86.3346 55.728V50.976C86.3346 50.672 86.3106 50.452 86.2626 50.316C86.2146 50.18 86.1226 50.088 85.9866 50.04C85.8586 49.992 85.6506 49.96 85.3626 49.944V49.704C85.6986 49.728 86.1866 49.74 86.8266 49.74L88.1226 49.728C88.2746 49.72 88.4466 49.716 88.6386 49.716C89.4946 49.716 90.1506 49.9 90.6066 50.268C91.0626 50.628 91.2906 51.112 91.2906 51.72C91.2906 52.104 91.1946 52.472 91.0026 52.824C90.8186 53.176 90.4986 53.468 90.0426 53.7C89.5946 53.932 88.9986 54.048 88.2546 54.048H87.4506ZM88.3386 49.944C88.0906 49.944 87.9026 49.972 87.7746 50.028C87.6546 50.084 87.5706 50.184 87.5226 50.328C87.4746 50.472 87.4506 50.688 87.4506 50.976V53.808H88.1346C88.8706 53.808 89.3786 53.632 89.6586 53.28C89.9466 52.928 90.0906 52.452 90.0906 51.852C90.0906 51.204 89.9546 50.724 89.6826 50.412C89.4106 50.1 88.9626 49.944 88.3386 49.944Z" fill="black"/>
<defs>
<clipPath id="clip0_2343_2842">
<rect width="40" height="40" fill="white" transform="translate(26)"/>
</clipPath>
</defs>
</svg>
