<svg width="42" height="42" viewBox="0 0 42 42" fill="none" xmlns="http://www.w3.org/2000/svg">
<g clip-path="url(#clip0_2343_3458)">
<path d="M21.1317 42C18.0949 38.9336 18.3743 35.2425 19.5252 33.2686C21.5842 29.7284 19.5252 28.2495 19.5252 28.2495C19.5252 28.2495 17.0289 27.9175 17.0289 26.1066C17.0289 24.2958 20.6732 23.0885 19.1547 19.165C18.3226 15.8451 11.3378 15.8451 12.2489 22.7867C9.97121 21.0875 10.1322 18.492 12.097 16.6419C9.49139 16.008 6.10831 18.2746 5.12436 19.4276C4.14041 20.5805 2.85278 24.0936 7.6146 28.5211C4.95126 27.993 2.53087 26.1066 2.53087 23.994C-1.82705 34.5755 8.70787 41.0704 13.1599 34.2555C14.9972 31.4457 7.6146 30.0302 11.8662 27.6157C15.7595 25.4034 19.4584 38.1791 9.13304 38.1791C0.326094 38.1791 -0.809698 27.3139 0.405053 22.1831C1.6198 17.0523 6.90701 12.169 13.4636 14.336C20.0202 16.503 18.022 9.18109 11.8936 11.3179C6.7005 13.1288 7.30787 7.09256 10.3448 6.48893C14.0285 5.75553 18.2406 11.0976 19.7591 12.827C18.5443 10.4125 18.435 2.73139 21.1287 0C23.7374 2.70724 23.786 10.4125 22.5712 12.827C24.0897 11.0976 28.3018 5.75553 31.9855 6.48893C35.0224 7.09256 35.6298 13.1288 30.4367 11.3179C24.3083 9.18109 22.2129 21.0815 28.7695 18.9175C35.3261 16.7535 39.8814 18.8632 41.3999 22.7867C42.9183 26.7103 42.0072 38.1791 33.2003 38.1791C22.8749 38.1791 26.5738 25.4034 30.4671 27.6157C34.7187 30.0302 28.1985 31.1318 29.556 33.3501C33.8077 40.2917 45.0441 33.0483 39.274 23.3903C39.274 25.503 37.3821 27.993 34.7187 28.5211C37.1482 26.1066 37.4519 21.2777 34.415 21.5795C31.3782 21.8813 26.5192 27.9175 23.1786 19.165C21.6602 23.0885 25.3044 24.2958 25.3044 26.1066C25.3044 27.9175 22.8081 28.2495 22.8081 28.2495C22.8081 28.2495 20.7491 29.7284 22.8081 33.2686C23.956 35.2425 23.8619 38.9336 21.1287 42H21.1317Z" fill="#121212"/>
</g>
<defs>
<clipPath id="clip0_2343_3458">
<rect width="42" height="42" fill="white"/>
</clipPath>
</defs>
</svg>
