<svg width="144" height="144" viewBox="0 0 144 144" fill="none" xmlns="http://www.w3.org/2000/svg">
<g clip-path="url(#clip0_2343_1524)">
<path d="M72.4485 144C62.0363 133.487 62.9943 120.831 66.9405 114.064C73.9999 101.926 66.9405 96.8554 66.9405 96.8554C66.9405 96.8554 58.3817 95.7172 58.3817 89.5085C58.3817 83.2998 70.8763 79.1607 65.6702 65.7085C62.8173 54.326 38.8693 54.326 41.993 78.1259C34.1838 72.3001 34.7357 63.401 41.4724 57.0578C32.5387 54.8847 20.9396 62.6559 17.5661 66.6088C14.1925 70.5617 9.77777 82.6065 26.104 97.7867C16.9726 95.9758 8.67408 89.5085 8.67408 82.265C-6.26735 118.544 29.8524 140.813 45.1166 117.448C51.416 107.814 26.104 102.961 40.681 94.6824C54.0294 87.0974 66.7114 130.9 31.3101 130.9C1.11486 130.9 -2.77928 93.6476 1.38558 76.0563C5.55044 58.4651 23.678 41.7223 46.1578 49.1521C68.6376 56.5818 61.7864 31.478 40.7747 38.8043C22.97 45.0129 25.0524 24.3173 35.4645 22.2478C48.0945 19.7333 62.5361 38.0489 67.7422 43.9781C63.5773 35.6999 63.2025 9.36476 72.4381 0C81.3821 9.28198 81.5487 35.6999 77.3839 43.9781C82.5899 38.0489 97.0316 19.7333 109.662 22.2478C120.074 24.3173 122.156 45.0129 104.351 38.8043C83.3396 31.478 76.1552 72.2794 98.635 64.86C121.115 57.4406 136.733 64.6738 141.939 78.1259C147.145 91.578 144.022 130.9 113.826 130.9C78.4251 130.9 91.1071 87.0974 104.455 94.6824C119.032 102.961 96.6776 106.738 101.332 114.343C115.909 138.143 154.434 113.308 134.651 80.1954C134.651 87.4389 128.164 95.9758 119.032 97.7867C127.362 89.5085 128.403 72.952 117.991 73.9868C107.579 75.0216 90.9196 95.7172 79.4663 65.7085C74.2602 79.1607 86.7548 83.2998 86.7548 89.5085C86.7548 95.7172 78.196 96.8554 78.196 96.8554C78.196 96.8554 71.1366 101.926 78.196 114.064C82.1318 120.831 81.809 133.487 72.4381 144H72.4485Z" fill="#F1F1F1"/>
</g>
<defs>
<clipPath id="clip0_2343_1524">
<rect width="144" height="144" fill="white"/>
</clipPath>
</defs>
</svg>
